<svg
  xmlns="http://www.w3.org/2000/svg"
  viewBox="0 0 160 160"
  fill="none"
  role="img"
  aria-labelledby="idx0LogoTitle idx0LogoDesc"
>
  <title id="idx0LogoTitle">IDX0 logo</title>
  <desc id="idx0LogoDesc">Bracketed zero with diagonal stroke.</desc>

  <defs>
    <!-- Deep dark background -->
    <linearGradient id="bgGrad" x1="0" y1="0" x2="1" y2="1">
      <stop offset="0%" stop-color="#0f1420" />
      <stop offset="100%" stop-color="#080b14" />
    </linearGradient>

    <!-- Unified stroke gradient — lit from top-left -->
    <linearGradient id="strokeGrad" x1="0.2" y1="0" x2="0.8" y2="1">
      <stop offset="0%" stop-color="#dce6ff" />
      <stop offset="60%" stop-color="#8ea8e0" />
      <stop offset="100%" stop-color="#5a78b8" />
    </linearGradient>

    <!-- Shadow offset version — darker, blurred -->
    <filter id="depthShadow" x="-10%" y="-10%" width="130%" height="130%">
      <feGaussianBlur in="SourceGraphic" stdDeviation="3" result="blur" />
      <feColorMatrix in="blur" type="matrix"
        values="0 0 0 0 0.1
                0 0 0 0 0.15
                0 0 0 0 0.3
                0 0 0 0.6 0" />
    </filter>

    <!-- Subtle ambient glow — behind glyph only, doesn't blur strokes -->
    <filter id="ambientGlow" x="-20%" y="-20%" width="140%" height="140%">
      <feGaussianBlur in="SourceGraphic" stdDeviation="6" result="blur" />
      <feColorMatrix in="blur" type="matrix"
        values="0 0 0 0 0.4
                0 0 0 0 0.5
                0 0 0 0 0.9
                0 0 0 0.3 0" />
    </filter>

    <!-- Top-edge highlight for background bevel -->
    <linearGradient id="edgeHighlight" x1="0.5" y1="0" x2="0.5" y2="1">
      <stop offset="0%" stop-color="#ffffff" stop-opacity="0.08" />
      <stop offset="50%" stop-color="#ffffff" stop-opacity="0" />
      <stop offset="100%" stop-color="#000000" stop-opacity="0.15" />
    </linearGradient>
  </defs>

  <!-- Background -->
  <rect x="4" y="4" width="152" height="152" rx="32" fill="url(#bgGrad)" />
  <rect x="4" y="4" width="152" height="152" rx="32" fill="url(#edgeHighlight)" />

  <!-- Ambient glow layer — soft blue halo behind the glyph -->
  <g filter="url(#ambientGlow)"
    stroke="#6080cc" stroke-width="12"
    stroke-linecap="round" stroke-linejoin="round"
  >
    <path d="M52 28H39c-7.18 0-13 5.82-13 13v78c0 7.18 5.82 13 13 13h13" />
    <path d="M108 28h13c7.18 0 13 5.82 13 13v78c0 7.18-5.82 13-13 13h-13" />
    <rect x="62" y="28" width="36" height="104" rx="18" />
    <path d="M63 104l35-46" />

  </g>

  <!-- Shadow layer — same paths, offset down-right, blurred dark -->
  <g filter="url(#depthShadow)" transform="translate(2, 3)"
    stroke="#1a2545" stroke-width="12"
    stroke-linecap="round" stroke-linejoin="round"
  >
    <path d="M52 28H39c-7.18 0-13 5.82-13 13v78c0 7.18 5.82 13 13 13h13" />
    <path d="M108 28h13c7.18 0 13 5.82 13 13v78c0 7.18-5.82 13-13 13h-13" />
    <rect x="62" y="28" width="36" height="104" rx="18" />
    <path d="M63 104l35-46" />

  </g>

  <!-- Main glyph — unified gradient, crisp strokes -->
  <g
    stroke="#dce6ff" stroke-width="12"
    stroke-linecap="round" stroke-linejoin="round"
  >
    <path d="M52 28H39c-7.18 0-13 5.82-13 13v78c0 7.18 5.82 13 13 13h13" />
    <path d="M108 28h13c7.18 0 13 5.82 13 13v78c0 7.18-5.82 13-13 13h-13" />
    <rect x="62" y="28" width="36" height="104" rx="18" />
    <path d="M63 104l35-46" />

  </g>
</svg>
